<?xml version="1.0" encoding="UTF-8" ?>
<svg width="516.31397" height="1040.0">
<path d="M 106.60254,945.0 L 106.60254,995.0 M 149.90381,920.0 L 106.60254,995.0 M 106.60254,945.0 L 149.90381,1020.0 M 193.20508,945.0 L 193.20508,995.0 M 236.50635,920.0 L 193.20508,995.0 M 193.20508,945.0 L 236.50635,1020.0 M 279.80762,945.0 L 279.80762,995.0 M 323.10889,920.0 L 279.80762,995.0 M 279.80762,945.0 L 323.10889,1020.0 M 366.41016,945.0 L 366.41016,995.0 M 409.71143,920.0 L 366.41016,995.0 M 366.41016,945.0 L 409.71143,1020.0 M 106.60254,945.0 L 20.0,945.0 M 106.60254,945.0 L 63.30127,920.0 M 106.60254,845.0 L 63.30127,920.0 M 149.90381,870.0 L 63.30127,870.0 M 63.30127,1020.0 L 106.60254,945.0 M 63.30127,870.0 L 106.60254,945.0 M 193.20508,995.0 L 149.90381,920.0 M 63.30127,920.0 L 149.90381,920.0 M 20.0,845.0 L 106.60254,845.0 M 63.30127,870.0 L 106.60254,845.0 M 149.90381,1020.0 L 193.20508,945.0 M 279.80762,995.0 L 236.50635,920.0 M 236.50635,1020.0 L 279.80762,945.0 M 366.41016,995.0 L 323.10889,920.0 M 323.10889,1020.0 L 366.41016,945.0 M 453.0127,945.0 L 366.41016,945.0 M 453.0127,995.0 L 409.71143,920.0 M 453.0127,945.0 L 409.71143,920.0 M 453.0127,845.0 L 409.71143,920.0 M 496.31397,870.0 L 409.71143,870.0 M 409.71143,870.0 L 453.0127,945.0 M 409.71143,920.0 L 496.31397,920.0 M 366.41016,845.0 L 453.0127,845.0 M 409.71143,870.0 L 453.0127,845.0 M 106.60254,795.0 L 20.0,795.0 M 106.60254,845.0 L 63.30127,770.0 M 106.60254,795.0 L 63.30127,770.0 M 106.60254,695.0 L 63.30127,770.0 M 149.90381,720.0 L 63.30127,720.0 M 63.30127,870.0 L 106.60254,795.0 M 63.30127,720.0 L 106.60254,795.0 M 63.30127,770.0 L 149.90381,770.0 M 20.0,695.0 L 106.60254,695.0 M 63.30127,720.0 L 106.60254,695.0 M 453.0127,795.0 L 366.41016,795.0 M 453.0127,845.0 L 409.71143,770.0 M 453.0127,795.0 L 409.71143,770.0 M 453.0127,695.0 L 409.71143,770.0 M 496.31397,720.0 L 409.71143,720.0 M 409.71143,870.0 L 453.0127,795.0 M 409.71143,720.0 L 453.0127,795.0 M 409.71143,770.0 L 496.31397,770.0 M 366.41016,695.0 L 453.0127,695.0 M 409.71143,720.0 L 453.0127,695.0 M 106.60254,645.0 L 20.0,645.0 M 106.60254,695.0 L 63.30127,620.0 M 106.60254,645.0 L 63.30127,620.0 M 106.60254,545.0 L 63.30127,620.0 M 149.90381,570.0 L 63.30127,570.0 M 63.30127,720.0 L 106.60254,645.0 M 63.30127,570.0 L 106.60254,645.0 M 63.30127,620.0 L 149.90381,620.0 M 20.0,545.0 L 106.60254,545.0 M 63.30127,570.0 L 106.60254,545.0 M 453.0127,645.0 L 366.41016,645.0 M 453.0127,695.0 L 409.71143,620.0 M 453.0127,645.0 L 409.71143,620.0 M 453.0127,545.0 L 409.71143,620.0 M 496.31397,570.0 L 409.71143,570.0 M 409.71143,720.0 L 453.0127,645.0 M 409.71143,570.0 L 453.0127,645.0 M 409.71143,620.0 L 496.31397,620.0 M 366.41016,545.0 L 453.0127,545.0 M 409.71143,570.0 L 453.0127,545.0 M 106.60254,495.0 L 20.0,495.0 M 106.60254,545.0 L 63.30127,470.0 M 106.60254,495.0 L 63.30127,470.0 M 106.60254,395.0 L 63.30127,470.0 M 149.90381,420.0 L 63.30127,420.0 M 63.30127,570.0 L 106.60254,495.0 M 63.30127,420.0 L 106.60254,495.0 M 63.30127,470.0 L 149.90381,470.0 M 20.0,395.0 L 106.60254,395.0 M 63.30127,420.0 L 106.60254,395.0 M 453.0127,495.0 L 366.41016,495.0 M 453.0127,545.0 L 409.71143,470.0 M 453.0127,495.0 L 409.71143,470.0 M 453.0127,395.0 L 409.71143,470.0 M 496.31397,420.0 L 409.71143,420.0 M 409.71143,570.0 L 453.0127,495.0 M 409.71143,420.0 L 453.0127,495.0 M 409.71143,470.0 L 496.31397,470.0 M 366.41016,395.0 L 453.0127,395.0 M 409.71143,420.0 L 453.0127,395.0 M 106.60254,345.0 L 20.0,345.0 M 106.60254,395.0 L 63.30127,320.0 M 106.60254,345.0 L 63.30127,320.0 M 106.60254,245.0 L 63.30127,320.0 M 149.90381,270.0 L 63.30127,270.0 M 63.30127,420.0 L 106.60254,345.0 M 63.30127,270.0 L 106.60254,345.0 M 63.30127,320.0 L 149.90381,320.0 M 20.0,245.0 L 106.60254,245.0 M 63.30127,270.0 L 106.60254,245.0 M 453.0127,345.0 L 366.41016,345.0 M 453.0127,395.0 L 409.71143,320.0 M 453.0127,345.0 L 409.71143,320.0 M 453.0127,245.0 L 409.71143,320.0 M 496.31397,270.0 L 409.71143,270.0 M 409.71143,420.0 L 453.0127,345.0 M 409.71143,270.0 L 453.0127,345.0 M 409.71143,320.0 L 496.31397,320.0 M 366.41016,245.0 L 453.0127,245.0 M 409.71143,270.0 L 453.0127,245.0 M 106.60254,195.0 L 20.0,195.0 M 106.60254,245.0 L 63.30127,170.0 M 106.60254,195.0 L 63.30127,170.0 M 106.60254,95.0 L 63.30127,170.0 M 149.90381,120.0 L 63.30127,120.0 M 63.30127,270.0 L 106.60254,195.0 M 63.30127,120.0 L 106.60254,195.0 M 63.30127,170.0 L 149.90381,170.0 M 20.0,95.0 L 106.60254,95.0 M 63.30127,120.0 L 106.60254,95.0 M 106.60254,45.0 L 106.60254,95.0 M 149.90381,20.0 L 106.60254,95.0 M 106.60254,45.0 L 149.90381,120.0 M 193.20508,45.0 L 193.20508,95.0 M 236.50635,20.0 L 193.20508,95.0 M 193.20508,45.0 L 236.50635,120.0 M 279.80762,45.0 L 279.80762,95.0 M 323.10889,20.0 L 279.80762,95.0 M 279.80762,45.0 L 323.10889,120.0 M 453.0127,195.0 L 366.41016,195.0 M 453.0127,245.0 L 409.71143,170.0 M 453.0127,195.0 L 409.71143,170.0 M 453.0127,95.0 L 409.71143,170.0 M 366.41016,45.0 L 366.41016,95.0 M 409.71143,20.0 L 366.41016,95.0 M 496.31397,120.0 L 409.71143,120.0 M 366.41016,45.0 L 409.71143,120.0 M 409.71143,270.0 L 453.0127,195.0 M 409.71143,120.0 L 453.0127,195.0 M 409.71143,170.0 L 496.31397,170.0 M 366.41016,95.0 L 453.0127,95.0 M 409.71143,120.0 L 453.0127,95.0 M 106.60254,95.0 L 63.30127,20.0 M 193.20508,95.0 L 149.90381,20.0 M 149.90381,120.0 L 193.20508,45.0 M 279.80762,95.0 L 236.50635,20.0 M 236.50635,120.0 L 279.80762,45.0 M 366.41016,95.0 L 323.10889,20.0 M 323.10889,120.0 L 366.41016,45.0 M 409.71143,120.0 L 453.0127,45.0"  style="stroke:gray;stroke-width:1.854;stroke-dasharray: 8" />
<path d="M 149.90381,870.0 L 106.60254,945.0 M 193.20508,945.0 L 149.90381,870.0 M 193.20508,795.0 L 149.90381,870.0 M 106.60254,945.0 L 193.20508,945.0 M 236.50635,870.0 L 193.20508,945.0 M 149.90381,870.0 L 236.50635,870.0 M 279.80762,945.0 L 236.50635,870.0 M 279.80762,795.0 L 236.50635,870.0 M 193.20508,945.0 L 279.80762,945.0 M 323.10889,870.0 L 279.80762,945.0 M 236.50635,870.0 L 323.10889,870.0 M 366.41016,945.0 L 323.10889,870.0 M 366.41016,795.0 L 323.10889,870.0 M 279.80762,945.0 L 366.41016,945.0 M 409.71143,870.0 L 366.41016,945.0 M 323.10889,870.0 L 409.71143,870.0 M 149.90381,870.0 L 106.60254,795.0 M 149.90381,720.0 L 106.60254,795.0 M 193.20508,795.0 L 149.90381,720.0 M 193.20508,645.0 L 149.90381,720.0 M 236.50635,870.0 L 193.20508,795.0 M 106.60254,795.0 L 193.20508,795.0 M 236.50635,720.0 L 193.20508,795.0 M 149.90381,720.0 L 236.50635,720.0 M 279.80762,795.0 L 236.50635,720.0 M 279.80762,645.0 L 236.50635,720.0 M 323.10889,870.0 L 279.80762,795.0 M 193.20508,795.0 L 279.80762,795.0 M 323.10889,720.0 L 279.80762,795.0 M 236.50635,720.0 L 323.10889,720.0 M 366.41016,795.0 L 323.10889,720.0 M 366.41016,645.0 L 323.10889,720.0 M 409.71143,870.0 L 366.41016,795.0 M 279.80762,795.0 L 366.41016,795.0 M 409.71143,720.0 L 366.41016,795.0 M 323.10889,720.0 L 409.71143,720.0 M 149.90381,720.0 L 106.60254,645.0 M 149.90381,570.0 L 106.60254,645.0 M 193.20508,645.0 L 149.90381,570.0 M 193.20508,495.0 L 149.90381,570.0 M 236.50635,720.0 L 193.20508,645.0 M 106.60254,645.0 L 193.20508,645.0 M 236.50635,570.0 L 193.20508,645.0 M 149.90381,570.0 L 236.50635,570.0 M 279.80762,645.0 L 236.50635,570.0 M 279.80762,495.0 L 236.50635,570.0 M 323.10889,720.0 L 279.80762,645.0 M 193.20508,645.0 L 279.80762,645.0 M 323.10889,570.0 L 279.80762,645.0 M 236.50635,570.0 L 323.10889,570.0 M 366.41016,645.0 L 323.10889,570.0 M 366.41016,495.0 L 323.10889,570.0 M 409.71143,720.0 L 366.41016,645.0 M 279.80762,645.0 L 366.41016,645.0 M 409.71143,570.0 L 366.41016,645.0 M 323.10889,570.0 L 409.71143,570.0 M 149.90381,570.0 L 106.60254,495.0 M 149.90381,420.0 L 106.60254,495.0 M 193.20508,495.0 L 149.90381,420.0 M 193.20508,345.0 L 149.90381,420.0 M 236.50635,570.0 L 193.20508,495.0 M 106.60254,495.0 L 193.20508,495.0 M 236.50635,420.0 L 193.20508,495.0 M 149.90381,420.0 L 236.50635,420.0 M 279.80762,495.0 L 236.50635,420.0 M 279.80762,345.0 L 236.50635,420.0 M 323.10889,570.0 L 279.80762,495.0 M 193.20508,495.0 L 279.80762,495.0 M 323.10889,420.0 L 279.80762,495.0 M 236.50635,420.0 L 323.10889,420.0 M 366.41016,495.0 L 323.10889,420.0 M 366.41016,345.0 L 323.10889,420.0 M 409.71143,570.0 L 366.41016,495.0 M 279.80762,495.0 L 366.41016,495.0 M 409.71143,420.0 L 366.41016,495.0 M 323.10889,420.0 L 409.71143,420.0 M 149.90381,420.0 L 106.60254,345.0 M 149.90381,270.0 L 106.60254,345.0 M 193.20508,345.0 L 149.90381,270.0 M 193.20508,195.0 L 149.90381,270.0 M 236.50635,420.0 L 193.20508,345.0 M 106.60254,345.0 L 193.20508,345.0 M 236.50635,270.0 L 193.20508,345.0 M 149.90381,270.0 L 236.50635,270.0 M 279.80762,345.0 L 236.50635,270.0 M 279.80762,195.0 L 236.50635,270.0 M 323.10889,420.0 L 279.80762,345.0 M 193.20508,345.0 L 279.80762,345.0 M 323.10889,270.0 L 279.80762,345.0 M 236.50635,270.0 L 323.10889,270.0 M 366.41016,345.0 L 323.10889,270.0 M 366.41016,195.0 L 323.10889,270.0 M 409.71143,420.0 L 366.41016,345.0 M 279.80762,345.0 L 366.41016,345.0 M 409.71143,270.0 L 366.41016,345.0 M 323.10889,270.0 L 409.71143,270.0 M 149.90381,270.0 L 106.60254,195.0 M 149.90381,120.0 L 106.60254,195.0 M 193.20508,195.0 L 149.90381,120.0 M 236.50635,270.0 L 193.20508,195.0 M 106.60254,195.0 L 193.20508,195.0 M 236.50635,120.0 L 193.20508,195.0 M 149.90381,120.0 L 236.50635,120.0 M 279.80762,195.0 L 236.50635,120.0 M 323.10889,270.0 L 279.80762,195.0 M 193.20508,195.0 L 279.80762,195.0 M 323.10889,120.0 L 279.80762,195.0 M 236.50635,120.0 L 323.10889,120.0 M 366.41016,195.0 L 323.10889,120.0 M 409.71143,270.0 L 366.41016,195.0 M 279.80762,195.0 L 366.41016,195.0 M 409.71143,120.0 L 366.41016,195.0 M 323.10889,120.0 L 409.71143,120.0"  style="stroke:yellow;stroke-width:1.0" />
<path d="M 106.60254,845.0 L 149.90381,920.0 M 236.50635,920.0 L 149.90381,920.0 M 193.20508,845.0 L 106.60254,845.0 M 193.20508,845.0 L 236.50635,920.0 M 323.10889,920.0 L 236.50635,920.0 M 149.90381,920.0 L 193.20508,845.0 M 279.80762,845.0 L 193.20508,845.0 M 149.90381,770.0 L 193.20508,845.0 M 279.80762,845.0 L 323.10889,920.0 M 409.71143,920.0 L 323.10889,920.0 M 236.50635,920.0 L 279.80762,845.0 M 366.41016,845.0 L 279.80762,845.0 M 236.50635,770.0 L 279.80762,845.0 M 366.41016,845.0 L 409.71143,920.0 M 323.10889,920.0 L 366.41016,845.0 M 323.10889,770.0 L 366.41016,845.0 M 106.60254,845.0 L 149.90381,770.0 M 106.60254,695.0 L 149.90381,770.0 M 236.50635,770.0 L 149.90381,770.0 M 193.20508,695.0 L 106.60254,695.0 M 193.20508,845.0 L 236.50635,770.0 M 193.20508,695.0 L 236.50635,770.0 M 323.10889,770.0 L 236.50635,770.0 M 149.90381,770.0 L 193.20508,695.0 M 279.80762,695.0 L 193.20508,695.0 M 149.90381,620.0 L 193.20508,695.0 M 279.80762,845.0 L 323.10889,770.0 M 279.80762,695.0 L 323.10889,770.0 M 409.71143,770.0 L 323.10889,770.0 M 236.50635,770.0 L 279.80762,695.0 M 366.41016,695.0 L 279.80762,695.0 M 236.50635,620.0 L 279.80762,695.0 M 366.41016,845.0 L 409.71143,770.0 M 366.41016,695.0 L 409.71143,770.0 M 323.10889,770.0 L 366.41016,695.0 M 323.10889,620.0 L 366.41016,695.0 M 106.60254,695.0 L 149.90381,620.0 M 106.60254,545.0 L 149.90381,620.0 M 236.50635,620.0 L 149.90381,620.0 M 193.20508,545.0 L 106.60254,545.0 M 193.20508,695.0 L 236.50635,620.0 M 193.20508,545.0 L 236.50635,620.0 M 323.10889,620.0 L 236.50635,620.0 M 149.90381,620.0 L 193.20508,545.0 M 279.80762,545.0 L 193.20508,545.0 M 149.90381,470.0 L 193.20508,545.0 M 279.80762,695.0 L 323.10889,620.0 M 279.80762,545.0 L 323.10889,620.0 M 409.71143,620.0 L 323.10889,620.0 M 236.50635,620.0 L 279.80762,545.0 M 366.41016,545.0 L 279.80762,545.0 M 236.50635,470.0 L 279.80762,545.0 M 366.41016,695.0 L 409.71143,620.0 M 366.41016,545.0 L 409.71143,620.0 M 323.10889,620.0 L 366.41016,545.0 M 323.10889,470.0 L 366.41016,545.0 M 106.60254,545.0 L 149.90381,470.0 M 106.60254,395.0 L 149.90381,470.0 M 236.50635,470.0 L 149.90381,470.0 M 193.20508,395.0 L 106.60254,395.0 M 193.20508,545.0 L 236.50635,470.0 M 193.20508,395.0 L 236.50635,470.0 M 323.10889,470.0 L 236.50635,470.0 M 149.90381,470.0 L 193.20508,395.0 M 279.80762,395.0 L 193.20508,395.0 M 149.90381,320.0 L 193.20508,395.0 M 279.80762,545.0 L 323.10889,470.0 M 279.80762,395.0 L 323.10889,470.0 M 409.71143,470.0 L 323.10889,470.0 M 236.50635,470.0 L 279.80762,395.0 M 366.41016,395.0 L 279.80762,395.0 M 236.50635,320.0 L 279.80762,395.0 M 366.41016,545.0 L 409.71143,470.0 M 366.41016,395.0 L 409.71143,470.0 M 323.10889,470.0 L 366.41016,395.0 M 323.10889,320.0 L 366.41016,395.0 M 106.60254,395.0 L 149.90381,320.0 M 106.60254,245.0 L 149.90381,320.0 M 236.50635,320.0 L 149.90381,320.0 M 193.20508,245.0 L 106.60254,245.0 M 193.20508,395.0 L 236.50635,320.0 M 193.20508,245.0 L 236.50635,320.0 M 323.10889,320.0 L 236.50635,320.0 M 149.90381,320.0 L 193.20508,245.0 M 279.80762,245.0 L 193.20508,245.0 M 149.90381,170.0 L 193.20508,245.0 M 279.80762,395.0 L 323.10889,320.0 M 279.80762,245.0 L 323.10889,320.0 M 409.71143,320.0 L 323.10889,320.0 M 236.50635,320.0 L 279.80762,245.0 M 366.41016,245.0 L 279.80762,245.0 M 236.50635,170.0 L 279.80762,245.0 M 366.41016,395.0 L 409.71143,320.0 M 366.41016,245.0 L 409.71143,320.0 M 323.10889,320.0 L 366.41016,245.0 M 323.10889,170.0 L 366.41016,245.0 M 106.60254,245.0 L 149.90381,170.0 M 106.60254,95.0 L 149.90381,170.0 M 236.50635,170.0 L 149.90381,170.0 M 193.20508,95.0 L 106.60254,95.0 M 193.20508,245.0 L 236.50635,170.0 M 193.20508,95.0 L 236.50635,170.0 M 323.10889,170.0 L 236.50635,170.0 M 149.90381,170.0 L 193.20508,95.0 M 279.80762,95.0 L 193.20508,95.0 M 279.80762,245.0 L 323.10889,170.0 M 279.80762,95.0 L 323.10889,170.0 M 409.71143,170.0 L 323.10889,170.0 M 236.50635,170.0 L 279.80762,95.0 M 366.41016,95.0 L 279.80762,95.0 M 366.41016,245.0 L 409.71143,170.0 M 366.41016,95.0 L 409.71143,170.0 M 323.10889,170.0 L 366.41016,95.0"  style="stroke:orange;stroke-width:1.0" />
<path d="M 193.20508,945.0 L 149.90381,920.0 M 149.90381,870.0 L 106.60254,845.0 M 279.80762,945.0 L 236.50635,920.0 M 236.50635,870.0 L 193.20508,845.0 M 366.41016,945.0 L 323.10889,920.0 M 323.10889,870.0 L 279.80762,845.0 M 409.71143,870.0 L 366.41016,845.0 M 193.20508,795.0 L 149.90381,770.0 M 149.90381,720.0 L 106.60254,695.0 M 279.80762,795.0 L 236.50635,770.0 M 236.50635,720.0 L 193.20508,695.0 M 366.41016,795.0 L 323.10889,770.0 M 323.10889,720.0 L 279.80762,695.0 M 409.71143,720.0 L 366.41016,695.0 M 193.20508,645.0 L 149.90381,620.0 M 149.90381,570.0 L 106.60254,545.0 M 279.80762,645.0 L 236.50635,620.0 M 236.50635,570.0 L 193.20508,545.0 M 366.41016,645.0 L 323.10889,620.0 M 323.10889,570.0 L 279.80762,545.0 M 409.71143,570.0 L 366.41016,545.0 M 193.20508,495.0 L 149.90381,470.0 M 149.90381,420.0 L 106.60254,395.0 M 279.80762,495.0 L 236.50635,470.0 M 236.50635,420.0 L 193.20508,395.0 M 366.41016,495.0 L 323.10889,470.0 M 323.10889,420.0 L 279.80762,395.0 M 409.71143,420.0 L 366.41016,395.0 M 193.20508,345.0 L 149.90381,320.0 M 149.90381,270.0 L 106.60254,245.0 M 279.80762,345.0 L 236.50635,320.0 M 236.50635,270.0 L 193.20508,245.0 M 366.41016,345.0 L 323.10889,320.0 M 323.10889,270.0 L 279.80762,245.0 M 409.71143,270.0 L 366.41016,245.0 M 193.20508,195.0 L 149.90381,170.0 M 149.90381,120.0 L 106.60254,95.0 M 279.80762,195.0 L 236.50635,170.0 M 236.50635,120.0 L 193.20508,95.0 M 366.41016,195.0 L 323.10889,170.0 M 323.10889,120.0 L 279.80762,95.0 M 409.71143,120.0 L 366.41016,95.0"  style="stroke:green;stroke-width:3.0;stroke-dasharray: 8" />
<path d="M 149.90381,920.0 L 149.90381,870.0 M 236.50635,920.0 L 236.50635,870.0 M 323.10889,920.0 L 323.10889,870.0 M 409.71143,920.0 L 409.71143,870.0 M 106.60254,845.0 L 106.60254,795.0 M 149.90381,770.0 L 149.90381,720.0 M 193.20508,845.0 L 193.20508,795.0 M 236.50635,770.0 L 236.50635,720.0 M 279.80762,845.0 L 279.80762,795.0 M 323.10889,770.0 L 323.10889,720.0 M 366.41016,845.0 L 366.41016,795.0 M 409.71143,770.0 L 409.71143,720.0 M 106.60254,695.0 L 106.60254,645.0 M 149.90381,620.0 L 149.90381,570.0 M 193.20508,695.0 L 193.20508,645.0 M 236.50635,620.0 L 236.50635,570.0 M 279.80762,695.0 L 279.80762,645.0 M 323.10889,620.0 L 323.10889,570.0 M 366.41016,695.0 L 366.41016,645.0 M 409.71143,620.0 L 409.71143,570.0 M 106.60254,545.0 L 106.60254,495.0 M 149.90381,470.0 L 149.90381,420.0 M 193.20508,545.0 L 193.20508,495.0 M 236.50635,470.0 L 236.50635,420.0 M 279.80762,545.0 L 279.80762,495.0 M 323.10889,470.0 L 323.10889,420.0 M 366.41016,545.0 L 366.41016,495.0 M 409.71143,470.0 L 409.71143,420.0 M 106.60254,395.0 L 106.60254,345.0 M 149.90381,320.0 L 149.90381,270.0 M 193.20508,395.0 L 193.20508,345.0 M 236.50635,320.0 L 236.50635,270.0 M 279.80762,395.0 L 279.80762,345.0 M 323.10889,320.0 L 323.10889,270.0 M 366.41016,395.0 L 366.41016,345.0 M 409.71143,320.0 L 409.71143,270.0 M 106.60254,245.0 L 106.60254,195.0 M 149.90381,170.0 L 149.90381,120.0 M 193.20508,245.0 L 193.20508,195.0 M 236.50635,170.0 L 236.50635,120.0 M 279.80762,245.0 L 279.80762,195.0 M 323.10889,170.0 L 323.10889,120.0 M 366.41016,245.0 L 366.41016,195.0 M 409.71143,170.0 L 409.71143,120.0"  style="stroke:blue;stroke-width:1.0" />
<path d="M 193.20508,845.0 L 149.90381,920.0 M 149.90381,920.0 L 106.60254,845.0 M 149.90381,770.0 L 106.60254,845.0 M 149.90381,920.0 L 236.50635,920.0 M 279.80762,845.0 L 236.50635,920.0 M 106.60254,845.0 L 193.20508,845.0 M 236.50635,920.0 L 193.20508,845.0 M 236.50635,770.0 L 193.20508,845.0 M 236.50635,920.0 L 323.10889,920.0 M 366.41016,845.0 L 323.10889,920.0 M 193.20508,845.0 L 279.80762,845.0 M 323.10889,920.0 L 279.80762,845.0 M 323.10889,770.0 L 279.80762,845.0 M 323.10889,920.0 L 409.71143,920.0 M 279.80762,845.0 L 366.41016,845.0 M 409.71143,920.0 L 366.41016,845.0 M 409.71143,770.0 L 366.41016,845.0 M 193.20508,845.0 L 149.90381,770.0 M 193.20508,695.0 L 149.90381,770.0 M 149.90381,770.0 L 106.60254,695.0 M 149.90381,620.0 L 106.60254,695.0 M 279.80762,845.0 L 236.50635,770.0 M 149.90381,770.0 L 236.50635,770.0 M 279.80762,695.0 L 236.50635,770.0 M 106.60254,695.0 L 193.20508,695.0 M 236.50635,770.0 L 193.20508,695.0 M 236.50635,620.0 L 193.20508,695.0 M 366.41016,845.0 L 323.10889,770.0 M 236.50635,770.0 L 323.10889,770.0 M 366.41016,695.0 L 323.10889,770.0 M 193.20508,695.0 L 279.80762,695.0 M 323.10889,770.0 L 279.80762,695.0 M 323.10889,620.0 L 279.80762,695.0 M 323.10889,770.0 L 409.71143,770.0 M 279.80762,695.0 L 366.41016,695.0 M 409.71143,770.0 L 366.41016,695.0 M 409.71143,620.0 L 366.41016,695.0 M 193.20508,695.0 L 149.90381,620.0 M 193.20508,545.0 L 149.90381,620.0 M 149.90381,620.0 L 106.60254,545.0 M 149.90381,470.0 L 106.60254,545.0 M 279.80762,695.0 L 236.50635,620.0 M 149.90381,620.0 L 236.50635,620.0 M 279.80762,545.0 L 236.50635,620.0 M 106.60254,545.0 L 193.20508,545.0 M 236.50635,620.0 L 193.20508,545.0 M 236.50635,470.0 L 193.20508,545.0 M 366.41016,695.0 L 323.10889,620.0 M 236.50635,620.0 L 323.10889,620.0 M 366.41016,545.0 L 323.10889,620.0 M 193.20508,545.0 L 279.80762,545.0 M 323.10889,620.0 L 279.80762,545.0 M 323.10889,470.0 L 279.80762,545.0 M 323.10889,620.0 L 409.71143,620.0 M 279.80762,545.0 L 366.41016,545.0 M 409.71143,620.0 L 366.41016,545.0 M 409.71143,470.0 L 366.41016,545.0 M 193.20508,545.0 L 149.90381,470.0 M 193.20508,395.0 L 149.90381,470.0 M 149.90381,470.0 L 106.60254,395.0 M 149.90381,320.0 L 106.60254,395.0 M 279.80762,545.0 L 236.50635,470.0 M 149.90381,470.0 L 236.50635,470.0 M 279.80762,395.0 L 236.50635,470.0 M 106.60254,395.0 L 193.20508,395.0 M 236.50635,470.0 L 193.20508,395.0 M 236.50635,320.0 L 193.20508,395.0 M 366.41016,545.0 L 323.10889,470.0 M 236.50635,470.0 L 323.10889,470.0 M 366.41016,395.0 L 323.10889,470.0 M 193.20508,395.0 L 279.80762,395.0 M 323.10889,470.0 L 279.80762,395.0 M 323.10889,320.0 L 279.80762,395.0 M 323.10889,470.0 L 409.71143,470.0 M 279.80762,395.0 L 366.41016,395.0 M 409.71143,470.0 L 366.41016,395.0 M 409.71143,320.0 L 366.41016,395.0 M 193.20508,395.0 L 149.90381,320.0 M 193.20508,245.0 L 149.90381,320.0 M 149.90381,320.0 L 106.60254,245.0 M 149.90381,170.0 L 106.60254,245.0 M 279.80762,395.0 L 236.50635,320.0 M 149.90381,320.0 L 236.50635,320.0 M 279.80762,245.0 L 236.50635,320.0 M 106.60254,245.0 L 193.20508,245.0 M 236.50635,320.0 L 193.20508,245.0 M 236.50635,170.0 L 193.20508,245.0 M 366.41016,395.0 L 323.10889,320.0 M 236.50635,320.0 L 323.10889,320.0 M 366.41016,245.0 L 323.10889,320.0 M 193.20508,245.0 L 279.80762,245.0 M 323.10889,320.0 L 279.80762,245.0 M 323.10889,170.0 L 279.80762,245.0 M 323.10889,320.0 L 409.71143,320.0 M 279.80762,245.0 L 366.41016,245.0 M 409.71143,320.0 L 366.41016,245.0 M 409.71143,170.0 L 366.41016,245.0 M 193.20508,245.0 L 149.90381,170.0 M 193.20508,95.0 L 149.90381,170.0 M 149.90381,170.0 L 106.60254,95.0 M 279.80762,245.0 L 236.50635,170.0 M 149.90381,170.0 L 236.50635,170.0 M 279.80762,95.0 L 236.50635,170.0 M 106.60254,95.0 L 193.20508,95.0 M 236.50635,170.0 L 193.20508,95.0 M 366.41016,245.0 L 323.10889,170.0 M 236.50635,170.0 L 323.10889,170.0 M 366.41016,95.0 L 323.10889,170.0 M 193.20508,95.0 L 279.80762,95.0 M 323.10889,170.0 L 279.80762,95.0 M 323.10889,170.0 L 409.71143,170.0 M 279.80762,95.0 L 366.41016,95.0 M 409.71143,170.0 L 366.41016,95.0"  style="stroke:orange;stroke-width:3.0;stroke-dasharray: 8" />
<path d="M 106.60254,945.0 L 149.90381,920.0 M 193.20508,945.0 L 236.50635,920.0 M 149.90381,870.0 L 193.20508,845.0 M 279.80762,945.0 L 323.10889,920.0 M 236.50635,870.0 L 279.80762,845.0 M 366.41016,945.0 L 409.71143,920.0 M 323.10889,870.0 L 366.41016,845.0 M 106.60254,795.0 L 149.90381,770.0 M 193.20508,795.0 L 236.50635,770.0 M 149.90381,720.0 L 193.20508,695.0 M 279.80762,795.0 L 323.10889,770.0 M 236.50635,720.0 L 279.80762,695.0 M 366.41016,795.0 L 409.71143,770.0 M 323.10889,720.0 L 366.41016,695.0 M 106.60254,645.0 L 149.90381,620.0 M 193.20508,645.0 L 236.50635,620.0 M 149.90381,570.0 L 193.20508,545.0 M 279.80762,645.0 L 323.10889,620.0 M 236.50635,570.0 L 279.80762,545.0 M 366.41016,645.0 L 409.71143,620.0 M 323.10889,570.0 L 366.41016,545.0 M 106.60254,495.0 L 149.90381,470.0 M 193.20508,495.0 L 236.50635,470.0 M 149.90381,420.0 L 193.20508,395.0 M 279.80762,495.0 L 323.10889,470.0 M 236.50635,420.0 L 279.80762,395.0 M 366.41016,495.0 L 409.71143,470.0 M 323.10889,420.0 L 366.41016,395.0 M 106.60254,345.0 L 149.90381,320.0 M 193.20508,345.0 L 236.50635,320.0 M 149.90381,270.0 L 193.20508,245.0 M 279.80762,345.0 L 323.10889,320.0 M 236.50635,270.0 L 279.80762,245.0 M 366.41016,345.0 L 409.71143,320.0 M 323.10889,270.0 L 366.41016,245.0 M 106.60254,195.0 L 149.90381,170.0 M 193.20508,195.0 L 236.50635,170.0 M 149.90381,120.0 L 193.20508,95.0 M 279.80762,195.0 L 323.10889,170.0 M 236.50635,120.0 L 279.80762,95.0 M 366.41016,195.0 L 409.71143,170.0 M 323.10889,120.0 L 366.41016,95.0"  style="stroke:red;stroke-width:3.0;stroke-dasharray: 8" />
<path d="M 106.60254,845.0 L 149.90381,870.0 M 149.90381,920.0 L 193.20508,945.0 M 193.20508,845.0 L 236.50635,870.0 M 236.50635,920.0 L 279.80762,945.0 M 279.80762,845.0 L 323.10889,870.0 M 323.10889,920.0 L 366.41016,945.0 M 366.41016,845.0 L 409.71143,870.0 M 106.60254,695.0 L 149.90381,720.0 M 149.90381,770.0 L 193.20508,795.0 M 193.20508,695.0 L 236.50635,720.0 M 236.50635,770.0 L 279.80762,795.0 M 279.80762,695.0 L 323.10889,720.0 M 323.10889,770.0 L 366.41016,795.0 M 366.41016,695.0 L 409.71143,720.0 M 106.60254,545.0 L 149.90381,570.0 M 149.90381,620.0 L 193.20508,645.0 M 193.20508,545.0 L 236.50635,570.0 M 236.50635,620.0 L 279.80762,645.0 M 279.80762,545.0 L 323.10889,570.0 M 323.10889,620.0 L 366.41016,645.0 M 366.41016,545.0 L 409.71143,570.0 M 106.60254,395.0 L 149.90381,420.0 M 149.90381,470.0 L 193.20508,495.0 M 193.20508,395.0 L 236.50635,420.0 M 236.50635,470.0 L 279.80762,495.0 M 279.80762,395.0 L 323.10889,420.0 M 323.10889,470.0 L 366.41016,495.0 M 366.41016,395.0 L 409.71143,420.0 M 106.60254,245.0 L 149.90381,270.0 M 149.90381,320.0 L 193.20508,345.0 M 193.20508,245.0 L 236.50635,270.0 M 236.50635,320.0 L 279.80762,345.0 M 279.80762,245.0 L 323.10889,270.0 M 323.10889,320.0 L 366.41016,345.0 M 366.41016,245.0 L 409.71143,270.0 M 106.60254,95.0 L 149.90381,120.0 M 149.90381,170.0 L 193.20508,195.0 M 193.20508,95.0 L 236.50635,120.0 M 236.50635,170.0 L 279.80762,195.0 M 279.80762,95.0 L 323.10889,120.0 M 323.10889,170.0 L 366.41016,195.0 M 366.41016,95.0 L 409.71143,120.0"  style="stroke:green;stroke-width:1.0" />
<path d="M 106.60254,945.0 L 20.0,995.0 M 106.60254,945.0 L 63.30127,1020.0 M 193.20508,945.0 L 106.60254,995.0 M 149.90381,920.0 L 149.90381,1020.0 M 193.20508,945.0 L 149.90381,1020.0 M 106.60254,945.0 L 193.20508,995.0 M 149.90381,920.0 L 193.20508,995.0 M 279.80762,945.0 L 193.20508,995.0 M 236.50635,920.0 L 236.50635,1020.0 M 279.80762,945.0 L 236.50635,1020.0 M 193.20508,945.0 L 279.80762,995.0 M 236.50635,920.0 L 279.80762,995.0 M 366.41016,945.0 L 279.80762,995.0 M 323.10889,920.0 L 323.10889,1020.0 M 366.41016,945.0 L 323.10889,1020.0 M 279.80762,945.0 L 366.41016,995.0 M 323.10889,920.0 L 366.41016,995.0 M 409.71143,920.0 L 409.71143,1020.0 M 366.41016,945.0 L 453.0127,995.0 M 409.71143,920.0 L 453.0127,995.0 M 149.90381,920.0 L 63.30127,920.0 M 149.90381,870.0 L 63.30127,920.0 M 106.60254,845.0 L 20.0,845.0 M 106.60254,795.0 L 20.0,845.0 M 106.60254,945.0 L 63.30127,870.0 M 149.90381,920.0 L 63.30127,870.0 M 106.60254,845.0 L 63.30127,870.0 M 106.60254,795.0 L 63.30127,870.0 M 20.0,995.0 L 106.60254,945.0 M 106.60254,995.0 L 106.60254,945.0 M 149.90381,1020.0 L 106.60254,945.0 M 193.20508,995.0 L 106.60254,945.0 M 20.0,945.0 L 106.60254,945.0 M 63.30127,920.0 L 106.60254,945.0 M 106.60254,995.0 L 149.90381,920.0 M 149.90381,1020.0 L 149.90381,920.0 M 63.30127,870.0 L 149.90381,920.0 M 63.30127,920.0 L 106.60254,845.0 M 20.0,795.0 L 106.60254,845.0 M 63.30127,770.0 L 106.60254,845.0 M 63.30127,920.0 L 149.90381,870.0 M 63.30127,870.0 L 149.90381,870.0 M 106.60254,995.0 L 193.20508,945.0 M 193.20508,995.0 L 193.20508,945.0 M 236.50635,1020.0 L 193.20508,945.0 M 279.80762,995.0 L 193.20508,945.0 M 193.20508,995.0 L 236.50635,920.0 M 236.50635,1020.0 L 236.50635,920.0 M 193.20508,995.0 L 279.80762,945.0 M 279.80762,995.0 L 279.80762,945.0 M 323.10889,1020.0 L 279.80762,945.0 M 366.41016,995.0 L 279.80762,945.0 M 279.80762,995.0 L 323.10889,920.0 M 323.10889,1020.0 L 323.10889,920.0 M 279.80762,995.0 L 366.41016,945.0 M 366.41016,995.0 L 366.41016,945.0 M 409.71143,1020.0 L 366.41016,945.0 M 453.0127,995.0 L 366.41016,945.0 M 366.41016,995.0 L 409.71143,920.0 M 409.71143,1020.0 L 409.71143,920.0 M 496.31397,920.0 L 409.71143,920.0 M 496.31397,870.0 L 409.71143,920.0 M 453.0127,845.0 L 366.41016,845.0 M 453.0127,795.0 L 366.41016,845.0 M 453.0127,945.0 L 409.71143,870.0 M 496.31397,920.0 L 409.71143,870.0 M 453.0127,845.0 L 409.71143,870.0 M 453.0127,795.0 L 409.71143,870.0 M 366.41016,945.0 L 453.0127,945.0 M 409.71143,920.0 L 453.0127,945.0 M 409.71143,870.0 L 496.31397,920.0 M 409.71143,920.0 L 453.0127,845.0 M 366.41016,795.0 L 453.0127,845.0 M 409.71143,770.0 L 453.0127,845.0 M 409.71143,920.0 L 496.31397,870.0 M 409.71143,870.0 L 496.31397,870.0 M 106.60254,845.0 L 20.0,795.0 M 149.90381,770.0 L 63.30127,770.0 M 149.90381,720.0 L 63.30127,770.0 M 106.60254,695.0 L 20.0,695.0 M 106.60254,645.0 L 20.0,695.0 M 106.60254,795.0 L 63.30127,720.0 M 149.90381,770.0 L 63.30127,720.0 M 106.60254,695.0 L 63.30127,720.0 M 106.60254,645.0 L 63.30127,720.0 M 20.0,845.0 L 106.60254,795.0 M 20.0,795.0 L 106.60254,795.0 M 63.30127,770.0 L 106.60254,795.0 M 63.30127,720.0 L 149.90381,770.0 M 63.30127,770.0 L 106.60254,695.0 M 20.0,645.0 L 106.60254,695.0 M 63.30127,620.0 L 106.60254,695.0 M 63.30127,770.0 L 149.90381,720.0 M 63.30127,720.0 L 149.90381,720.0 M 453.0127,845.0 L 366.41016,795.0 M 496.31397,770.0 L 409.71143,770.0 M 496.31397,720.0 L 409.71143,770.0 M 453.0127,695.0 L 366.41016,695.0 M 453.0127,645.0 L 366.41016,695.0 M 453.0127,795.0 L 409.71143,720.0 M 496.31397,770.0 L 409.71143,720.0 M 453.0127,695.0 L 409.71143,720.0 M 453.0127,645.0 L 409.71143,720.0 M 366.41016,845.0 L 453.0127,795.0 M 366.41016,795.0 L 453.0127,795.0 M 409.71143,770.0 L 453.0127,795.0 M 409.71143,720.0 L 496.31397,770.0 M 409.71143,770.0 L 453.0127,695.0 M 366.41016,645.0 L 453.0127,695.0 M 409.71143,620.0 L 453.0127,695.0 M 409.71143,770.0 L 496.31397,720.0 M 409.71143,720.0 L 496.31397,720.0 M 106.60254,695.0 L 20.0,645.0 M 149.90381,620.0 L 63.30127,620.0 M 149.90381,570.0 L 63.30127,620.0 M 106.60254,545.0 L 20.0,545.0 M 106.60254,495.0 L 20.0,545.0 M 106.60254,645.0 L 63.30127,570.0 M 149.90381,620.0 L 63.30127,570.0 M 106.60254,545.0 L 63.30127,570.0 M 106.60254,495.0 L 63.30127,570.0 M 20.0,695.0 L 106.60254,645.0 M 20.0,645.0 L 106.60254,645.0 M 63.30127,620.0 L 106.60254,645.0 M 63.30127,570.0 L 149.90381,620.0 M 63.30127,620.0 L 106.60254,545.0 M 20.0,495.0 L 106.60254,545.0 M 63.30127,470.0 L 106.60254,545.0 M 63.30127,620.0 L 149.90381,570.0 M 63.30127,570.0 L 149.90381,570.0 M 453.0127,695.0 L 366.41016,645.0 M 496.31397,620.0 L 409.71143,620.0 M 496.31397,570.0 L 409.71143,620.0 M 453.0127,545.0 L 366.41016,545.0 M 453.0127,495.0 L 366.41016,545.0 M 453.0127,645.0 L 409.71143,570.0 M 496.31397,620.0 L 409.71143,570.0 M 453.0127,545.0 L 409.71143,570.0 M 453.0127,495.0 L 409.71143,570.0 M 366.41016,695.0 L 453.0127,645.0 M 366.41016,645.0 L 453.0127,645.0 M 409.71143,620.0 L 453.0127,645.0 M 409.71143,570.0 L 496.31397,620.0 M 409.71143,620.0 L 453.0127,545.0 M 366.41016,495.0 L 453.0127,545.0 M 409.71143,470.0 L 453.0127,545.0 M 409.71143,620.0 L 496.31397,570.0 M 409.71143,570.0 L 496.31397,570.0 M 106.60254,545.0 L 20.0,495.0 M 149.90381,470.0 L 63.30127,470.0 M 149.90381,420.0 L 63.30127,470.0 M 106.60254,395.0 L 20.0,395.0 M 106.60254,345.0 L 20.0,395.0 M 106.60254,495.0 L 63.30127,420.0 M 149.90381,470.0 L 63.30127,420.0 M 106.60254,395.0 L 63.30127,420.0 M 106.60254,345.0 L 63.30127,420.0 M 20.0,545.0 L 106.60254,495.0 M 20.0,495.0 L 106.60254,495.0 M 63.30127,470.0 L 106.60254,495.0 M 63.30127,420.0 L 149.90381,470.0 M 63.30127,470.0 L 106.60254,395.0 M 20.0,345.0 L 106.60254,395.0 M 63.30127,320.0 L 106.60254,395.0 M 63.30127,470.0 L 149.90381,420.0 M 63.30127,420.0 L 149.90381,420.0 M 453.0127,545.0 L 366.41016,495.0 M 496.31397,470.0 L 409.71143,470.0 M 496.31397,420.0 L 409.71143,470.0 M 453.0127,395.0 L 366.41016,395.0 M 453.0127,345.0 L 366.41016,395.0 M 453.0127,495.0 L 409.71143,420.0 M 496.31397,470.0 L 409.71143,420.0 M 453.0127,395.0 L 409.71143,420.0 M 453.0127,345.0 L 409.71143,420.0 M 366.41016,545.0 L 453.0127,495.0 M 366.41016,495.0 L 453.0127,495.0 M 409.71143,470.0 L 453.0127,495.0 M 409.71143,420.0 L 496.31397,470.0 M 409.71143,470.0 L 453.0127,395.0 M 366.41016,345.0 L 453.0127,395.0 M 409.71143,320.0 L 453.0127,395.0 M 409.71143,470.0 L 496.31397,420.0 M 409.71143,420.0 L 496.31397,420.0 M 106.60254,395.0 L 20.0,345.0 M 149.90381,320.0 L 63.30127,320.0 M 149.90381,270.0 L 63.30127,320.0 M 106.60254,245.0 L 20.0,245.0 M 106.60254,195.0 L 20.0,245.0 M 106.60254,345.0 L 63.30127,270.0 M 149.90381,320.0 L 63.30127,270.0 M 106.60254,245.0 L 63.30127,270.0 M 106.60254,195.0 L 63.30127,270.0 M 20.0,395.0 L 106.60254,345.0 M 20.0,345.0 L 106.60254,345.0 M 63.30127,320.0 L 106.60254,345.0 M 63.30127,270.0 L 149.90381,320.0 M 63.30127,320.0 L 106.60254,245.0 M 20.0,195.0 L 106.60254,245.0 M 63.30127,170.0 L 106.60254,245.0 M 63.30127,320.0 L 149.90381,270.0 M 63.30127,270.0 L 149.90381,270.0 M 453.0127,395.0 L 366.41016,345.0 M 496.31397,320.0 L 409.71143,320.0 M 496.31397,270.0 L 409.71143,320.0 M 453.0127,245.0 L 366.41016,245.0 M 453.0127,195.0 L 366.41016,245.0 M 453.0127,345.0 L 409.71143,270.0 M 496.31397,320.0 L 409.71143,270.0 M 453.0127,245.0 L 409.71143,270.0 M 453.0127,195.0 L 409.71143,270.0 M 366.41016,395.0 L 453.0127,345.0 M 366.41016,345.0 L 453.0127,345.0 M 409.71143,320.0 L 453.0127,345.0 M 409.71143,270.0 L 496.31397,320.0 M 409.71143,320.0 L 453.0127,245.0 M 366.41016,195.0 L 453.0127,245.0 M 409.71143,170.0 L 453.0127,245.0 M 409.71143,320.0 L 496.31397,270.0 M 409.71143,270.0 L 496.31397,270.0 M 106.60254,245.0 L 20.0,195.0 M 149.90381,170.0 L 63.30127,170.0 M 149.90381,120.0 L 63.30127,170.0 M 106.60254,95.0 L 20.0,95.0 M 106.60254,195.0 L 63.30127,120.0 M 149.90381,170.0 L 63.30127,120.0 M 106.60254,95.0 L 63.30127,120.0 M 20.0,245.0 L 106.60254,195.0 M 20.0,195.0 L 106.60254,195.0 M 63.30127,170.0 L 106.60254,195.0 M 63.30127,120.0 L 149.90381,170.0 M 63.30127,170.0 L 106.60254,95.0 M 20.0,45.0 L 106.60254,95.0 M 63.30127,20.0 L 106.60254,95.0 M 193.20508,45.0 L 106.60254,95.0 M 63.30127,170.0 L 149.90381,120.0 M 63.30127,120.0 L 149.90381,120.0 M 149.90381,20.0 L 149.90381,120.0 M 193.20508,45.0 L 149.90381,120.0 M 106.60254,45.0 L 193.20508,95.0 M 149.90381,20.0 L 193.20508,95.0 M 279.80762,45.0 L 193.20508,95.0 M 236.50635,20.0 L 236.50635,120.0 M 279.80762,45.0 L 236.50635,120.0 M 193.20508,45.0 L 279.80762,95.0 M 236.50635,20.0 L 279.80762,95.0 M 366.41016,45.0 L 279.80762,95.0 M 323.10889,20.0 L 323.10889,120.0 M 366.41016,45.0 L 323.10889,120.0 M 453.0127,245.0 L 366.41016,195.0 M 496.31397,170.0 L 409.71143,170.0 M 496.31397,120.0 L 409.71143,170.0 M 453.0127,95.0 L 366.41016,95.0 M 279.80762,45.0 L 366.41016,95.0 M 323.10889,20.0 L 366.41016,95.0 M 453.0127,45.0 L 366.41016,95.0 M 453.0127,195.0 L 409.71143,120.0 M 496.31397,170.0 L 409.71143,120.0 M 453.0127,95.0 L 409.71143,120.0 M 409.71143,20.0 L 409.71143,120.0 M 453.0127,45.0 L 409.71143,120.0 M 366.41016,245.0 L 453.0127,195.0 M 366.41016,195.0 L 453.0127,195.0 M 409.71143,170.0 L 453.0127,195.0 M 409.71143,120.0 L 496.31397,170.0 M 409.71143,170.0 L 453.0127,95.0 M 409.71143,170.0 L 496.31397,120.0 M 409.71143,120.0 L 496.31397,120.0 M 106.60254,95.0 L 20.0,45.0 M 106.60254,95.0 L 106.60254,45.0 M 149.90381,120.0 L 106.60254,45.0 M 193.20508,95.0 L 106.60254,45.0 M 106.60254,95.0 L 149.90381,20.0 M 149.90381,120.0 L 149.90381,20.0 M 106.60254,95.0 L 193.20508,45.0 M 193.20508,95.0 L 193.20508,45.0 M 236.50635,120.0 L 193.20508,45.0 M 279.80762,95.0 L 193.20508,45.0 M 193.20508,95.0 L 236.50635,20.0 M 236.50635,120.0 L 236.50635,20.0 M 193.20508,95.0 L 279.80762,45.0 M 279.80762,95.0 L 279.80762,45.0 M 323.10889,120.0 L 279.80762,45.0 M 366.41016,95.0 L 279.80762,45.0 M 279.80762,95.0 L 323.10889,20.0 M 323.10889,120.0 L 323.10889,20.0 M 279.80762,95.0 L 366.41016,45.0 M 366.41016,95.0 L 366.41016,45.0 M 409.71143,120.0 L 366.41016,45.0 M 366.41016,95.0 L 409.71143,20.0 M 409.71143,120.0 L 409.71143,20.0 M 366.41016,95.0 L 453.0127,45.0"  style="stroke:gray;stroke-width:0.618" />
<path d="M 149.90381,870.0 L 149.90381,920.0 M 106.60254,795.0 L 106.60254,845.0 M 236.50635,870.0 L 236.50635,920.0 M 193.20508,795.0 L 193.20508,845.0 M 323.10889,870.0 L 323.10889,920.0 M 279.80762,795.0 L 279.80762,845.0 M 409.71143,870.0 L 409.71143,920.0 M 366.41016,795.0 L 366.41016,845.0 M 149.90381,720.0 L 149.90381,770.0 M 106.60254,645.0 L 106.60254,695.0 M 236.50635,720.0 L 236.50635,770.0 M 193.20508,645.0 L 193.20508,695.0 M 323.10889,720.0 L 323.10889,770.0 M 279.80762,645.0 L 279.80762,695.0 M 409.71143,720.0 L 409.71143,770.0 M 366.41016,645.0 L 366.41016,695.0 M 149.90381,570.0 L 149.90381,620.0 M 106.60254,495.0 L 106.60254,545.0 M 236.50635,570.0 L 236.50635,620.0 M 193.20508,495.0 L 193.20508,545.0 M 323.10889,570.0 L 323.10889,620.0 M 279.80762,495.0 L 279.80762,545.0 M 409.71143,570.0 L 409.71143,620.0 M 366.41016,495.0 L 366.41016,545.0 M 149.90381,420.0 L 149.90381,470.0 M 106.60254,345.0 L 106.60254,395.0 M 236.50635,420.0 L 236.50635,470.0 M 193.20508,345.0 L 193.20508,395.0 M 323.10889,420.0 L 323.10889,470.0 M 279.80762,345.0 L 279.80762,395.0 M 409.71143,420.0 L 409.71143,470.0 M 366.41016,345.0 L 366.41016,395.0 M 149.90381,270.0 L 149.90381,320.0 M 106.60254,195.0 L 106.60254,245.0 M 236.50635,270.0 L 236.50635,320.0 M 193.20508,195.0 L 193.20508,245.0 M 323.10889,270.0 L 323.10889,320.0 M 279.80762,195.0 L 279.80762,245.0 M 409.71143,270.0 L 409.71143,320.0 M 366.41016,195.0 L 366.41016,245.0 M 149.90381,120.0 L 149.90381,170.0 M 236.50635,120.0 L 236.50635,170.0 M 323.10889,120.0 L 323.10889,170.0 M 409.71143,120.0 L 409.71143,170.0"  style="stroke:blue;stroke-width:3.0;stroke-dasharray: 8" />
<path d="M 193.20508,945.0 L 106.60254,945.0 M 106.60254,945.0 L 149.90381,870.0 M 236.50635,870.0 L 149.90381,870.0 M 106.60254,795.0 L 149.90381,870.0 M 149.90381,870.0 L 193.20508,945.0 M 279.80762,945.0 L 193.20508,945.0 M 193.20508,945.0 L 236.50635,870.0 M 323.10889,870.0 L 236.50635,870.0 M 193.20508,795.0 L 236.50635,870.0 M 236.50635,870.0 L 279.80762,945.0 M 366.41016,945.0 L 279.80762,945.0 M 279.80762,945.0 L 323.10889,870.0 M 409.71143,870.0 L 323.10889,870.0 M 279.80762,795.0 L 323.10889,870.0 M 323.10889,870.0 L 366.41016,945.0 M 366.41016,945.0 L 409.71143,870.0 M 366.41016,795.0 L 409.71143,870.0 M 193.20508,795.0 L 106.60254,795.0 M 106.60254,795.0 L 149.90381,720.0 M 236.50635,720.0 L 149.90381,720.0 M 106.60254,645.0 L 149.90381,720.0 M 149.90381,870.0 L 193.20508,795.0 M 149.90381,720.0 L 193.20508,795.0 M 279.80762,795.0 L 193.20508,795.0 M 193.20508,795.0 L 236.50635,720.0 M 323.10889,720.0 L 236.50635,720.0 M 193.20508,645.0 L 236.50635,720.0 M 236.50635,870.0 L 279.80762,795.0 M 236.50635,720.0 L 279.80762,795.0 M 366.41016,795.0 L 279.80762,795.0 M 279.80762,795.0 L 323.10889,720.0 M 409.71143,720.0 L 323.10889,720.0 M 279.80762,645.0 L 323.10889,720.0 M 323.10889,870.0 L 366.41016,795.0 M 323.10889,720.0 L 366.41016,795.0 M 366.41016,795.0 L 409.71143,720.0 M 366.41016,645.0 L 409.71143,720.0 M 193.20508,645.0 L 106.60254,645.0 M 106.60254,645.0 L 149.90381,570.0 M 236.50635,570.0 L 149.90381,570.0 M 106.60254,495.0 L 149.90381,570.0 M 149.90381,720.0 L 193.20508,645.0 M 149.90381,570.0 L 193.20508,645.0 M 279.80762,645.0 L 193.20508,645.0 M 193.20508,645.0 L 236.50635,570.0 M 323.10889,570.0 L 236.50635,570.0 M 193.20508,495.0 L 236.50635,570.0 M 236.50635,720.0 L 279.80762,645.0 M 236.50635,570.0 L 279.80762,645.0 M 366.41016,645.0 L 279.80762,645.0 M 279.80762,645.0 L 323.10889,570.0 M 409.71143,570.0 L 323.10889,570.0 M 279.80762,495.0 L 323.10889,570.0 M 323.10889,720.0 L 366.41016,645.0 M 323.10889,570.0 L 366.41016,645.0 M 366.41016,645.0 L 409.71143,570.0 M 366.41016,495.0 L 409.71143,570.0 M 193.20508,495.0 L 106.60254,495.0 M 106.60254,495.0 L 149.90381,420.0 M 236.50635,420.0 L 149.90381,420.0 M 106.60254,345.0 L 149.90381,420.0 M 149.90381,570.0 L 193.20508,495.0 M 149.90381,420.0 L 193.20508,495.0 M 279.80762,495.0 L 193.20508,495.0 M 193.20508,495.0 L 236.50635,420.0 M 323.10889,420.0 L 236.50635,420.0 M 193.20508,345.0 L 236.50635,420.0 M 236.50635,570.0 L 279.80762,495.0 M 236.50635,420.0 L 279.80762,495.0 M 366.41016,495.0 L 279.80762,495.0 M 279.80762,495.0 L 323.10889,420.0 M 409.71143,420.0 L 323.10889,420.0 M 279.80762,345.0 L 323.10889,420.0 M 323.10889,570.0 L 366.41016,495.0 M 323.10889,420.0 L 366.41016,495.0 M 366.41016,495.0 L 409.71143,420.0 M 366.41016,345.0 L 409.71143,420.0 M 193.20508,345.0 L 106.60254,345.0 M 106.60254,345.0 L 149.90381,270.0 M 236.50635,270.0 L 149.90381,270.0 M 106.60254,195.0 L 149.90381,270.0 M 149.90381,420.0 L 193.20508,345.0 M 149.90381,270.0 L 193.20508,345.0 M 279.80762,345.0 L 193.20508,345.0 M 193.20508,345.0 L 236.50635,270.0 M 323.10889,270.0 L 236.50635,270.0 M 193.20508,195.0 L 236.50635,270.0 M 236.50635,420.0 L 279.80762,345.0 M 236.50635,270.0 L 279.80762,345.0 M 366.41016,345.0 L 279.80762,345.0 M 279.80762,345.0 L 323.10889,270.0 M 409.71143,270.0 L 323.10889,270.0 M 279.80762,195.0 L 323.10889,270.0 M 323.10889,420.0 L 366.41016,345.0 M 323.10889,270.0 L 366.41016,345.0 M 366.41016,345.0 L 409.71143,270.0 M 366.41016,195.0 L 409.71143,270.0 M 193.20508,195.0 L 106.60254,195.0 M 106.60254,195.0 L 149.90381,120.0 M 236.50635,120.0 L 149.90381,120.0 M 149.90381,270.0 L 193.20508,195.0 M 149.90381,120.0 L 193.20508,195.0 M 279.80762,195.0 L 193.20508,195.0 M 193.20508,195.0 L 236.50635,120.0 M 323.10889,120.0 L 236.50635,120.0 M 236.50635,270.0 L 279.80762,195.0 M 236.50635,120.0 L 279.80762,195.0 M 366.41016,195.0 L 279.80762,195.0 M 279.80762,195.0 L 323.10889,120.0 M 409.71143,120.0 L 323.10889,120.0 M 323.10889,270.0 L 366.41016,195.0 M 323.10889,120.0 L 366.41016,195.0 M 366.41016,195.0 L 409.71143,120.0"  style="stroke:yellow;stroke-width:3.0;stroke-dasharray: 8" />
<path d="M 149.90381,920.0 L 106.60254,945.0 M 193.20508,845.0 L 149.90381,870.0 M 236.50635,920.0 L 193.20508,945.0 M 279.80762,845.0 L 236.50635,870.0 M 323.10889,920.0 L 279.80762,945.0 M 366.41016,845.0 L 323.10889,870.0 M 409.71143,920.0 L 366.41016,945.0 M 149.90381,770.0 L 106.60254,795.0 M 193.20508,695.0 L 149.90381,720.0 M 236.50635,770.0 L 193.20508,795.0 M 279.80762,695.0 L 236.50635,720.0 M 323.10889,770.0 L 279.80762,795.0 M 366.41016,695.0 L 323.10889,720.0 M 409.71143,770.0 L 366.41016,795.0 M 149.90381,620.0 L 106.60254,645.0 M 193.20508,545.0 L 149.90381,570.0 M 236.50635,620.0 L 193.20508,645.0 M 279.80762,545.0 L 236.50635,570.0 M 323.10889,620.0 L 279.80762,645.0 M 366.41016,545.0 L 323.10889,570.0 M 409.71143,620.0 L 366.41016,645.0 M 149.90381,470.0 L 106.60254,495.0 M 193.20508,395.0 L 149.90381,420.0 M 236.50635,470.0 L 193.20508,495.0 M 279.80762,395.0 L 236.50635,420.0 M 323.10889,470.0 L 279.80762,495.0 M 366.41016,395.0 L 323.10889,420.0 M 409.71143,470.0 L 366.41016,495.0 M 149.90381,320.0 L 106.60254,345.0 M 193.20508,245.0 L 149.90381,270.0 M 236.50635,320.0 L 193.20508,345.0 M 279.80762,245.0 L 236.50635,270.0 M 323.10889,320.0 L 279.80762,345.0 M 366.41016,245.0 L 323.10889,270.0 M 409.71143,320.0 L 366.41016,345.0 M 149.90381,170.0 L 106.60254,195.0 M 193.20508,95.0 L 149.90381,120.0 M 236.50635,170.0 L 193.20508,195.0 M 279.80762,95.0 L 236.50635,120.0 M 323.10889,170.0 L 279.80762,195.0 M 366.41016,95.0 L 323.10889,120.0 M 409.71143,170.0 L 366.41016,195.0"  style="stroke:red;stroke-width:1.0" />
<path d="M 106.60254,845.0 L 106.60254,945.0 M 236.50635,870.0 L 149.90381,920.0 M 106.60254,945.0 L 106.60254,845.0 M 193.20508,795.0 L 106.60254,845.0 M 236.50635,920.0 L 149.90381,870.0 M 149.90381,770.0 L 149.90381,870.0 M 193.20508,845.0 L 193.20508,945.0 M 149.90381,870.0 L 236.50635,920.0 M 323.10889,870.0 L 236.50635,920.0 M 193.20508,945.0 L 193.20508,845.0 M 106.60254,795.0 L 193.20508,845.0 M 279.80762,795.0 L 193.20508,845.0 M 149.90381,920.0 L 236.50635,870.0 M 323.10889,920.0 L 236.50635,870.0 M 236.50635,770.0 L 236.50635,870.0 M 279.80762,845.0 L 279.80762,945.0 M 236.50635,870.0 L 323.10889,920.0 M 409.71143,870.0 L 323.10889,920.0 M 279.80762,945.0 L 279.80762,845.0 M 193.20508,795.0 L 279.80762,845.0 M 366.41016,795.0 L 279.80762,845.0 M 236.50635,920.0 L 323.10889,870.0 M 409.71143,920.0 L 323.10889,870.0 M 323.10889,770.0 L 323.10889,870.0 M 366.41016,845.0 L 366.41016,945.0 M 323.10889,870.0 L 409.71143,920.0 M 366.41016,945.0 L 366.41016,845.0 M 279.80762,795.0 L 366.41016,845.0 M 323.10889,920.0 L 409.71143,870.0 M 409.71143,770.0 L 409.71143,870.0 M 193.20508,845.0 L 106.60254,795.0 M 106.60254,695.0 L 106.60254,795.0 M 149.90381,870.0 L 149.90381,770.0 M 236.50635,720.0 L 149.90381,770.0 M 106.60254,795.0 L 106.60254,695.0 M 193.20508,645.0 L 106.60254,695.0 M 236.50635,770.0 L 149.90381,720.0 M 149.90381,620.0 L 149.90381,720.0 M 106.60254,845.0 L 193.20508,795.0 M 279.80762,845.0 L 193.20508,795.0 M 193.20508,695.0 L 193.20508,795.0 M 236.50635,870.0 L 236.50635,770.0 M 149.90381,720.0 L 236.50635,770.0 M 323.10889,720.0 L 236.50635,770.0 M 193.20508,795.0 L 193.20508,695.0 M 106.60254,645.0 L 193.20508,695.0 M 279.80762,645.0 L 193.20508,695.0 M 149.90381,770.0 L 236.50635,720.0 M 323.10889,770.0 L 236.50635,720.0 M 236.50635,620.0 L 236.50635,720.0 M 193.20508,845.0 L 279.80762,795.0 M 366.41016,845.0 L 279.80762,795.0 M 279.80762,695.0 L 279.80762,795.0 M 323.10889,870.0 L 323.10889,770.0 M 236.50635,720.0 L 323.10889,770.0 M 409.71143,720.0 L 323.10889,770.0 M 279.80762,795.0 L 279.80762,695.0 M 193.20508,645.0 L 279.80762,695.0 M 366.41016,645.0 L 279.80762,695.0 M 236.50635,770.0 L 323.10889,720.0 M 409.71143,770.0 L 323.10889,720.0 M 323.10889,620.0 L 323.10889,720.0 M 279.80762,845.0 L 366.41016,795.0 M 366.41016,695.0 L 366.41016,795.0 M 409.71143,870.0 L 409.71143,770.0 M 323.10889,720.0 L 409.71143,770.0 M 366.41016,795.0 L 366.41016,695.0 M 279.80762,645.0 L 366.41016,695.0 M 323.10889,770.0 L 409.71143,720.0 M 409.71143,620.0 L 409.71143,720.0 M 193.20508,695.0 L 106.60254,645.0 M 106.60254,545.0 L 106.60254,645.0 M 149.90381,720.0 L 149.90381,620.0 M 236.50635,570.0 L 149.90381,620.0 M 106.60254,645.0 L 106.60254,545.0 M 193.20508,495.0 L 106.60254,545.0 M 236.50635,620.0 L 149.90381,570.0 M 149.90381,470.0 L 149.90381,570.0 M 106.60254,695.0 L 193.20508,645.0 M 279.80762,695.0 L 193.20508,645.0 M 193.20508,545.0 L 193.20508,645.0 M 236.50635,720.0 L 236.50635,620.0 M 149.90381,570.0 L 236.50635,620.0 M 323.10889,570.0 L 236.50635,620.0 M 193.20508,645.0 L 193.20508,545.0 M 106.60254,495.0 L 193.20508,545.0 M 279.80762,495.0 L 193.20508,545.0 M 149.90381,620.0 L 236.50635,570.0 M 323.10889,620.0 L 236.50635,570.0 M 236.50635,470.0 L 236.50635,570.0 M 193.20508,695.0 L 279.80762,645.0 M 366.41016,695.0 L 279.80762,645.0 M 279.80762,545.0 L 279.80762,645.0 M 323.10889,720.0 L 323.10889,620.0 M 236.50635,570.0 L 323.10889,620.0 M 409.71143,570.0 L 323.10889,620.0 M 279.80762,645.0 L 279.80762,545.0 M 193.20508,495.0 L 279.80762,545.0 M 366.41016,495.0 L 279.80762,545.0 M 236.50635,620.0 L 323.10889,570.0 M 409.71143,620.0 L 323.10889,570.0 M 323.10889,470.0 L 323.10889,570.0 M 279.80762,695.0 L 366.41016,645.0 M 366.41016,545.0 L 366.41016,645.0 M 409.71143,720.0 L 409.71143,620.0 M 323.10889,570.0 L 409.71143,620.0 M 366.41016,645.0 L 366.41016,545.0 M 279.80762,495.0 L 366.41016,545.0 M 323.10889,620.0 L 409.71143,570.0 M 409.71143,470.0 L 409.71143,570.0 M 193.20508,545.0 L 106.60254,495.0 M 106.60254,395.0 L 106.60254,495.0 M 149.90381,570.0 L 149.90381,470.0 M 236.50635,420.0 L 149.90381,470.0 M 106.60254,495.0 L 106.60254,395.0 M 193.20508,345.0 L 106.60254,395.0 M 236.50635,470.0 L 149.90381,420.0 M 149.90381,320.0 L 149.90381,420.0 M 106.60254,545.0 L 193.20508,495.0 M 279.80762,545.0 L 193.20508,495.0 M 193.20508,395.0 L 193.20508,495.0 M 236.50635,570.0 L 236.50635,470.0 M 149.90381,420.0 L 236.50635,470.0 M 323.10889,420.0 L 236.50635,470.0 M 193.20508,495.0 L 193.20508,395.0 M 106.60254,345.0 L 193.20508,395.0 M 279.80762,345.0 L 193.20508,395.0 M 149.90381,470.0 L 236.50635,420.0 M 323.10889,470.0 L 236.50635,420.0 M 236.50635,320.0 L 236.50635,420.0 M 193.20508,545.0 L 279.80762,495.0 M 366.41016,545.0 L 279.80762,495.0 M 279.80762,395.0 L 279.80762,495.0 M 323.10889,570.0 L 323.10889,470.0 M 236.50635,420.0 L 323.10889,470.0 M 409.71143,420.0 L 323.10889,470.0 M 279.80762,495.0 L 279.80762,395.0 M 193.20508,345.0 L 279.80762,395.0 M 366.41016,345.0 L 279.80762,395.0 M 236.50635,470.0 L 323.10889,420.0 M 409.71143,470.0 L 323.10889,420.0 M 323.10889,320.0 L 323.10889,420.0 M 279.80762,545.0 L 366.41016,495.0 M 366.41016,395.0 L 366.41016,495.0 M 409.71143,570.0 L 409.71143,470.0 M 323.10889,420.0 L 409.71143,470.0 M 366.41016,495.0 L 366.41016,395.0 M 279.80762,345.0 L 366.41016,395.0 M 323.10889,470.0 L 409.71143,420.0 M 409.71143,320.0 L 409.71143,420.0 M 193.20508,395.0 L 106.60254,345.0 M 106.60254,245.0 L 106.60254,345.0 M 149.90381,420.0 L 149.90381,320.0 M 236.50635,270.0 L 149.90381,320.0 M 106.60254,345.0 L 106.60254,245.0 M 193.20508,195.0 L 106.60254,245.0 M 236.50635,320.0 L 149.90381,270.0 M 149.90381,170.0 L 149.90381,270.0 M 106.60254,395.0 L 193.20508,345.0 M 279.80762,395.0 L 193.20508,345.0 M 193.20508,245.0 L 193.20508,345.0 M 236.50635,420.0 L 236.50635,320.0 M 149.90381,270.0 L 236.50635,320.0 M 323.10889,270.0 L 236.50635,320.0 M 193.20508,345.0 L 193.20508,245.0 M 106.60254,195.0 L 193.20508,245.0 M 279.80762,195.0 L 193.20508,245.0 M 149.90381,320.0 L 236.50635,270.0 M 323.10889,320.0 L 236.50635,270.0 M 236.50635,170.0 L 236.50635,270.0 M 193.20508,395.0 L 279.80762,345.0 M 366.41016,395.0 L 279.80762,345.0 M 279.80762,245.0 L 279.80762,345.0 M 323.10889,420.0 L 323.10889,320.0 M 236.50635,270.0 L 323.10889,320.0 M 409.71143,270.0 L 323.10889,320.0 M 279.80762,345.0 L 279.80762,245.0 M 193.20508,195.0 L 279.80762,245.0 M 366.41016,195.0 L 279.80762,245.0 M 236.50635,320.0 L 323.10889,270.0 M 409.71143,320.0 L 323.10889,270.0 M 323.10889,170.0 L 323.10889,270.0 M 279.80762,395.0 L 366.41016,345.0 M 366.41016,245.0 L 366.41016,345.0 M 409.71143,420.0 L 409.71143,320.0 M 323.10889,270.0 L 409.71143,320.0 M 366.41016,345.0 L 366.41016,245.0 M 279.80762,195.0 L 366.41016,245.0 M 323.10889,320.0 L 409.71143,270.0 M 409.71143,170.0 L 409.71143,270.0 M 193.20508,245.0 L 106.60254,195.0 M 106.60254,95.0 L 106.60254,195.0 M 149.90381,270.0 L 149.90381,170.0 M 236.50635,120.0 L 149.90381,170.0 M 106.60254,195.0 L 106.60254,95.0 M 236.50635,170.0 L 149.90381,120.0 M 106.60254,245.0 L 193.20508,195.0 M 279.80762,245.0 L 193.20508,195.0 M 193.20508,95.0 L 193.20508,195.0 M 236.50635,270.0 L 236.50635,170.0 M 149.90381,120.0 L 236.50635,170.0 M 323.10889,120.0 L 236.50635,170.0 M 193.20508,195.0 L 193.20508,95.0 M 149.90381,170.0 L 236.50635,120.0 M 323.10889,170.0 L 236.50635,120.0 M 193.20508,245.0 L 279.80762,195.0 M 366.41016,245.0 L 279.80762,195.0 M 279.80762,95.0 L 279.80762,195.0 M 323.10889,270.0 L 323.10889,170.0 M 236.50635,120.0 L 323.10889,170.0 M 409.71143,120.0 L 323.10889,170.0 M 279.80762,195.0 L 279.80762,95.0 M 236.50635,170.0 L 323.10889,120.0 M 409.71143,170.0 L 323.10889,120.0 M 279.80762,245.0 L 366.41016,195.0 M 366.41016,95.0 L 366.41016,195.0 M 409.71143,270.0 L 409.71143,170.0 M 323.10889,120.0 L 409.71143,170.0 M 366.41016,195.0 L 366.41016,95.0 M 323.10889,170.0 L 409.71143,120.0"  style="stroke:gray;stroke-width:1.0" />
<path d="M 15.674,995.0 a 4.326,4.326 0 1,0 8.652,0  a 4.326,4.326 0 1,0 -8.652,0  M 102.27654,995.0 a 4.326,4.326 0 1,0 8.652,0  a 4.326,4.326 0 1,0 -8.652,0  M 188.87908,995.0 a 4.326,4.326 0 1,0 8.652,0  a 4.326,4.326 0 1,0 -8.652,0  M 275.48162,995.0 a 4.326,4.326 0 1,0 8.652,0  a 4.326,4.326 0 1,0 -8.652,0  M 362.08416,995.0 a 4.326,4.326 0 1,0 8.652,0  a 4.326,4.326 0 1,0 -8.652,0  M 448.6867,995.0 a 4.326,4.326 0 1,0 8.652,0  a 4.326,4.326 0 1,0 -8.652,0  M 58.97527,920.0 a 4.326,4.326 0 1,0 8.652,0  a 4.326,4.326 0 1,0 -8.652,0  M 15.674,845.0 a 4.326,4.326 0 1,0 8.652,0  a 4.326,4.326 0 1,0 -8.652,0  M 491.98797,920.0 a 4.326,4.326 0 1,0 8.652,0  a 4.326,4.326 0 1,0 -8.652,0  M 448.6867,845.0 a 4.326,4.326 0 1,0 8.652,0  a 4.326,4.326 0 1,0 -8.652,0  M 58.97527,770.0 a 4.326,4.326 0 1,0 8.652,0  a 4.326,4.326 0 1,0 -8.652,0  M 15.674,695.0 a 4.326,4.326 0 1,0 8.652,0  a 4.326,4.326 0 1,0 -8.652,0  M 491.98797,770.0 a 4.326,4.326 0 1,0 8.652,0  a 4.326,4.326 0 1,0 -8.652,0  M 448.6867,695.0 a 4.326,4.326 0 1,0 8.652,0  a 4.326,4.326 0 1,0 -8.652,0  M 58.97527,620.0 a 4.326,4.326 0 1,0 8.652,0  a 4.326,4.326 0 1,0 -8.652,0  M 15.674,545.0 a 4.326,4.326 0 1,0 8.652,0  a 4.326,4.326 0 1,0 -8.652,0  M 491.98797,620.0 a 4.326,4.326 0 1,0 8.652,0  a 4.326,4.326 0 1,0 -8.652,0  M 448.6867,545.0 a 4.326,4.326 0 1,0 8.652,0  a 4.326,4.326 0 1,0 -8.652,0  M 58.97527,470.0 a 4.326,4.326 0 1,0 8.652,0  a 4.326,4.326 0 1,0 -8.652,0  M 15.674,395.0 a 4.326,4.326 0 1,0 8.652,0  a 4.326,4.326 0 1,0 -8.652,0  M 491.98797,470.0 a 4.326,4.326 0 1,0 8.652,0  a 4.326,4.326 0 1,0 -8.652,0  M 448.6867,395.0 a 4.326,4.326 0 1,0 8.652,0  a 4.326,4.326 0 1,0 -8.652,0  M 58.97527,320.0 a 4.326,4.326 0 1,0 8.652,0  a 4.326,4.326 0 1,0 -8.652,0  M 15.674,245.0 a 4.326,4.326 0 1,0 8.652,0  a 4.326,4.326 0 1,0 -8.652,0  M 491.98797,320.0 a 4.326,4.326 0 1,0 8.652,0  a 4.326,4.326 0 1,0 -8.652,0  M 448.6867,245.0 a 4.326,4.326 0 1,0 8.652,0  a 4.326,4.326 0 1,0 -8.652,0  M 58.97527,170.0 a 4.326,4.326 0 1,0 8.652,0  a 4.326,4.326 0 1,0 -8.652,0  M 15.674,95.0 a 4.326,4.326 0 1,0 8.652,0  a 4.326,4.326 0 1,0 -8.652,0  M 491.98797,170.0 a 4.326,4.326 0 1,0 8.652,0  a 4.326,4.326 0 1,0 -8.652,0  M 448.6867,95.0 a 4.326,4.326 0 1,0 8.652,0  a 4.326,4.326 0 1,0 -8.652,0  M 58.97527,20.0 a 4.326,4.326 0 1,0 8.652,0  a 4.326,4.326 0 1,0 -8.652,0  M 145.57781,20.0 a 4.326,4.326 0 1,0 8.652,0  a 4.326,4.326 0 1,0 -8.652,0  M 232.18035,20.0 a 4.326,4.326 0 1,0 8.652,0  a 4.326,4.326 0 1,0 -8.652,0  M 318.78289,20.0 a 4.326,4.326 0 1,0 8.652,0  a 4.326,4.326 0 1,0 -8.652,0  M 405.38543,20.0 a 4.326,4.326 0 1,0 8.652,0  a 4.326,4.326 0 1,0 -8.652,0 "  stroke="gray" stroke-width="1.65253"  stroke-opacity="1" fill-opacity="1"  fill="none" />
<path d="M 142.90381,920.0 a 7.0,7.0 0 1,0 14.0,0  a 7.0,7.0 0 1,0 -14.0,0  M 99.60254,845.0 a 7.0,7.0 0 1,0 14.0,0  a 7.0,7.0 0 1,0 -14.0,0  M 229.50635,920.0 a 7.0,7.0 0 1,0 14.0,0  a 7.0,7.0 0 1,0 -14.0,0  M 186.20508,845.0 a 7.0,7.0 0 1,0 14.0,0  a 7.0,7.0 0 1,0 -14.0,0  M 316.10889,920.0 a 7.0,7.0 0 1,0 14.0,0  a 7.0,7.0 0 1,0 -14.0,0  M 272.80762,845.0 a 7.0,7.0 0 1,0 14.0,0  a 7.0,7.0 0 1,0 -14.0,0  M 402.71143,920.0 a 7.0,7.0 0 1,0 14.0,0  a 7.0,7.0 0 1,0 -14.0,0  M 359.41016,845.0 a 7.0,7.0 0 1,0 14.0,0  a 7.0,7.0 0 1,0 -14.0,0  M 142.90381,770.0 a 7.0,7.0 0 1,0 14.0,0  a 7.0,7.0 0 1,0 -14.0,0  M 99.60254,695.0 a 7.0,7.0 0 1,0 14.0,0  a 7.0,7.0 0 1,0 -14.0,0  M 229.50635,770.0 a 7.0,7.0 0 1,0 14.0,0  a 7.0,7.0 0 1,0 -14.0,0  M 186.20508,695.0 a 7.0,7.0 0 1,0 14.0,0  a 7.0,7.0 0 1,0 -14.0,0  M 316.10889,770.0 a 7.0,7.0 0 1,0 14.0,0  a 7.0,7.0 0 1,0 -14.0,0  M 272.80762,695.0 a 7.0,7.0 0 1,0 14.0,0  a 7.0,7.0 0 1,0 -14.0,0  M 402.71143,770.0 a 7.0,7.0 0 1,0 14.0,0  a 7.0,7.0 0 1,0 -14.0,0  M 359.41016,695.0 a 7.0,7.0 0 1,0 14.0,0  a 7.0,7.0 0 1,0 -14.0,0  M 142.90381,620.0 a 7.0,7.0 0 1,0 14.0,0  a 7.0,7.0 0 1,0 -14.0,0  M 99.60254,545.0 a 7.0,7.0 0 1,0 14.0,0  a 7.0,7.0 0 1,0 -14.0,0  M 229.50635,620.0 a 7.0,7.0 0 1,0 14.0,0  a 7.0,7.0 0 1,0 -14.0,0  M 186.20508,545.0 a 7.0,7.0 0 1,0 14.0,0  a 7.0,7.0 0 1,0 -14.0,0  M 316.10889,620.0 a 7.0,7.0 0 1,0 14.0,0  a 7.0,7.0 0 1,0 -14.0,0  M 272.80762,545.0 a 7.0,7.0 0 1,0 14.0,0  a 7.0,7.0 0 1,0 -14.0,0  M 402.71143,620.0 a 7.0,7.0 0 1,0 14.0,0  a 7.0,7.0 0 1,0 -14.0,0  M 359.41016,545.0 a 7.0,7.0 0 1,0 14.0,0  a 7.0,7.0 0 1,0 -14.0,0  M 142.90381,470.0 a 7.0,7.0 0 1,0 14.0,0  a 7.0,7.0 0 1,0 -14.0,0  M 99.60254,395.0 a 7.0,7.0 0 1,0 14.0,0  a 7.0,7.0 0 1,0 -14.0,0  M 229.50635,470.0 a 7.0,7.0 0 1,0 14.0,0  a 7.0,7.0 0 1,0 -14.0,0  M 186.20508,395.0 a 7.0,7.0 0 1,0 14.0,0  a 7.0,7.0 0 1,0 -14.0,0  M 316.10889,470.0 a 7.0,7.0 0 1,0 14.0,0  a 7.0,7.0 0 1,0 -14.0,0  M 272.80762,395.0 a 7.0,7.0 0 1,0 14.0,0  a 7.0,7.0 0 1,0 -14.0,0  M 402.71143,470.0 a 7.0,7.0 0 1,0 14.0,0  a 7.0,7.0 0 1,0 -14.0,0  M 359.41016,395.0 a 7.0,7.0 0 1,0 14.0,0  a 7.0,7.0 0 1,0 -14.0,0  M 142.90381,320.0 a 7.0,7.0 0 1,0 14.0,0  a 7.0,7.0 0 1,0 -14.0,0  M 99.60254,245.0 a 7.0,7.0 0 1,0 14.0,0  a 7.0,7.0 0 1,0 -14.0,0  M 229.50635,320.0 a 7.0,7.0 0 1,0 14.0,0  a 7.0,7.0 0 1,0 -14.0,0  M 186.20508,245.0 a 7.0,7.0 0 1,0 14.0,0  a 7.0,7.0 0 1,0 -14.0,0  M 316.10889,320.0 a 7.0,7.0 0 1,0 14.0,0  a 7.0,7.0 0 1,0 -14.0,0  M 272.80762,245.0 a 7.0,7.0 0 1,0 14.0,0  a 7.0,7.0 0 1,0 -14.0,0  M 402.71143,320.0 a 7.0,7.0 0 1,0 14.0,0  a 7.0,7.0 0 1,0 -14.0,0  M 359.41016,245.0 a 7.0,7.0 0 1,0 14.0,0  a 7.0,7.0 0 1,0 -14.0,0  M 142.90381,170.0 a 7.0,7.0 0 1,0 14.0,0  a 7.0,7.0 0 1,0 -14.0,0  M 99.60254,95.0 a 7.0,7.0 0 1,0 14.0,0  a 7.0,7.0 0 1,0 -14.0,0  M 229.50635,170.0 a 7.0,7.0 0 1,0 14.0,0  a 7.0,7.0 0 1,0 -14.0,0  M 186.20508,95.0 a 7.0,7.0 0 1,0 14.0,0  a 7.0,7.0 0 1,0 -14.0,0  M 316.10889,170.0 a 7.0,7.0 0 1,0 14.0,0  a 7.0,7.0 0 1,0 -14.0,0  M 272.80762,95.0 a 7.0,7.0 0 1,0 14.0,0  a 7.0,7.0 0 1,0 -14.0,0  M 402.71143,170.0 a 7.0,7.0 0 1,0 14.0,0  a 7.0,7.0 0 1,0 -14.0,0  M 359.41016,95.0 a 7.0,7.0 0 1,0 14.0,0  a 7.0,7.0 0 1,0 -14.0,0 "  stroke="black" stroke-width="2.674"  stroke-opacity="1" fill-opacity="1"  fill="none" />
<path d="M 99.60254,945.0 a 7.0,7.0 0 1,0 14.0,0  a 7.0,7.0 0 1,0 -14.0,0  M 142.90381,870.0 a 7.0,7.0 0 1,0 14.0,0  a 7.0,7.0 0 1,0 -14.0,0  M 186.20508,945.0 a 7.0,7.0 0 1,0 14.0,0  a 7.0,7.0 0 1,0 -14.0,0  M 229.50635,870.0 a 7.0,7.0 0 1,0 14.0,0  a 7.0,7.0 0 1,0 -14.0,0  M 272.80762,945.0 a 7.0,7.0 0 1,0 14.0,0  a 7.0,7.0 0 1,0 -14.0,0  M 316.10889,870.0 a 7.0,7.0 0 1,0 14.0,0  a 7.0,7.0 0 1,0 -14.0,0  M 359.41016,945.0 a 7.0,7.0 0 1,0 14.0,0  a 7.0,7.0 0 1,0 -14.0,0  M 402.71143,870.0 a 7.0,7.0 0 1,0 14.0,0  a 7.0,7.0 0 1,0 -14.0,0  M 99.60254,795.0 a 7.0,7.0 0 1,0 14.0,0  a 7.0,7.0 0 1,0 -14.0,0  M 142.90381,720.0 a 7.0,7.0 0 1,0 14.0,0  a 7.0,7.0 0 1,0 -14.0,0  M 186.20508,795.0 a 7.0,7.0 0 1,0 14.0,0  a 7.0,7.0 0 1,0 -14.0,0  M 229.50635,720.0 a 7.0,7.0 0 1,0 14.0,0  a 7.0,7.0 0 1,0 -14.0,0  M 272.80762,795.0 a 7.0,7.0 0 1,0 14.0,0  a 7.0,7.0 0 1,0 -14.0,0  M 316.10889,720.0 a 7.0,7.0 0 1,0 14.0,0  a 7.0,7.0 0 1,0 -14.0,0  M 359.41016,795.0 a 7.0,7.0 0 1,0 14.0,0  a 7.0,7.0 0 1,0 -14.0,0  M 402.71143,720.0 a 7.0,7.0 0 1,0 14.0,0  a 7.0,7.0 0 1,0 -14.0,0  M 99.60254,645.0 a 7.0,7.0 0 1,0 14.0,0  a 7.0,7.0 0 1,0 -14.0,0  M 142.90381,570.0 a 7.0,7.0 0 1,0 14.0,0  a 7.0,7.0 0 1,0 -14.0,0  M 186.20508,645.0 a 7.0,7.0 0 1,0 14.0,0  a 7.0,7.0 0 1,0 -14.0,0  M 229.50635,570.0 a 7.0,7.0 0 1,0 14.0,0  a 7.0,7.0 0 1,0 -14.0,0  M 272.80762,645.0 a 7.0,7.0 0 1,0 14.0,0  a 7.0,7.0 0 1,0 -14.0,0  M 316.10889,570.0 a 7.0,7.0 0 1,0 14.0,0  a 7.0,7.0 0 1,0 -14.0,0  M 359.41016,645.0 a 7.0,7.0 0 1,0 14.0,0  a 7.0,7.0 0 1,0 -14.0,0  M 402.71143,570.0 a 7.0,7.0 0 1,0 14.0,0  a 7.0,7.0 0 1,0 -14.0,0  M 99.60254,495.0 a 7.0,7.0 0 1,0 14.0,0  a 7.0,7.0 0 1,0 -14.0,0  M 142.90381,420.0 a 7.0,7.0 0 1,0 14.0,0  a 7.0,7.0 0 1,0 -14.0,0  M 186.20508,495.0 a 7.0,7.0 0 1,0 14.0,0  a 7.0,7.0 0 1,0 -14.0,0  M 229.50635,420.0 a 7.0,7.0 0 1,0 14.0,0  a 7.0,7.0 0 1,0 -14.0,0  M 272.80762,495.0 a 7.0,7.0 0 1,0 14.0,0  a 7.0,7.0 0 1,0 -14.0,0  M 316.10889,420.0 a 7.0,7.0 0 1,0 14.0,0  a 7.0,7.0 0 1,0 -14.0,0  M 359.41016,495.0 a 7.0,7.0 0 1,0 14.0,0  a 7.0,7.0 0 1,0 -14.0,0  M 402.71143,420.0 a 7.0,7.0 0 1,0 14.0,0  a 7.0,7.0 0 1,0 -14.0,0  M 99.60254,345.0 a 7.0,7.0 0 1,0 14.0,0  a 7.0,7.0 0 1,0 -14.0,0  M 142.90381,270.0 a 7.0,7.0 0 1,0 14.0,0  a 7.0,7.0 0 1,0 -14.0,0  M 186.20508,345.0 a 7.0,7.0 0 1,0 14.0,0  a 7.0,7.0 0 1,0 -14.0,0  M 229.50635,270.0 a 7.0,7.0 0 1,0 14.0,0  a 7.0,7.0 0 1,0 -14.0,0  M 272.80762,345.0 a 7.0,7.0 0 1,0 14.0,0  a 7.0,7.0 0 1,0 -14.0,0  M 316.10889,270.0 a 7.0,7.0 0 1,0 14.0,0  a 7.0,7.0 0 1,0 -14.0,0  M 359.41016,345.0 a 7.0,7.0 0 1,0 14.0,0  a 7.0,7.0 0 1,0 -14.0,0  M 402.71143,270.0 a 7.0,7.0 0 1,0 14.0,0  a 7.0,7.0 0 1,0 -14.0,0  M 99.60254,195.0 a 7.0,7.0 0 1,0 14.0,0  a 7.0,7.0 0 1,0 -14.0,0  M 142.90381,120.0 a 7.0,7.0 0 1,0 14.0,0  a 7.0,7.0 0 1,0 -14.0,0  M 186.20508,195.0 a 7.0,7.0 0 1,0 14.0,0  a 7.0,7.0 0 1,0 -14.0,0  M 229.50635,120.0 a 7.0,7.0 0 1,0 14.0,0  a 7.0,7.0 0 1,0 -14.0,0  M 272.80762,195.0 a 7.0,7.0 0 1,0 14.0,0  a 7.0,7.0 0 1,0 -14.0,0  M 316.10889,120.0 a 7.0,7.0 0 1,0 14.0,0  a 7.0,7.0 0 1,0 -14.0,0  M 359.41016,195.0 a 7.0,7.0 0 1,0 14.0,0  a 7.0,7.0 0 1,0 -14.0,0  M 402.71143,120.0 a 7.0,7.0 0 1,0 14.0,0  a 7.0,7.0 0 1,0 -14.0,0 "  stroke="black" stroke-width="0.0"  stroke-opacity="1" fill-opacity="1"  fill="black" />
<path d="M 58.97527,1020.0 a 4.326,4.326 0 1,0 8.652,0  a 4.326,4.326 0 1,0 -8.652,0  M 145.57781,1020.0 a 4.326,4.326 0 1,0 8.652,0  a 4.326,4.326 0 1,0 -8.652,0  M 232.18035,1020.0 a 4.326,4.326 0 1,0 8.652,0  a 4.326,4.326 0 1,0 -8.652,0  M 318.78289,1020.0 a 4.326,4.326 0 1,0 8.652,0  a 4.326,4.326 0 1,0 -8.652,0  M 405.38543,1020.0 a 4.326,4.326 0 1,0 8.652,0  a 4.326,4.326 0 1,0 -8.652,0  M 15.674,945.0 a 4.326,4.326 0 1,0 8.652,0  a 4.326,4.326 0 1,0 -8.652,0  M 58.97527,870.0 a 4.326,4.326 0 1,0 8.652,0  a 4.326,4.326 0 1,0 -8.652,0  M 448.6867,945.0 a 4.326,4.326 0 1,0 8.652,0  a 4.326,4.326 0 1,0 -8.652,0  M 491.98797,870.0 a 4.326,4.326 0 1,0 8.652,0  a 4.326,4.326 0 1,0 -8.652,0  M 15.674,795.0 a 4.326,4.326 0 1,0 8.652,0  a 4.326,4.326 0 1,0 -8.652,0  M 58.97527,720.0 a 4.326,4.326 0 1,0 8.652,0  a 4.326,4.326 0 1,0 -8.652,0  M 448.6867,795.0 a 4.326,4.326 0 1,0 8.652,0  a 4.326,4.326 0 1,0 -8.652,0  M 491.98797,720.0 a 4.326,4.326 0 1,0 8.652,0  a 4.326,4.326 0 1,0 -8.652,0  M 15.674,645.0 a 4.326,4.326 0 1,0 8.652,0  a 4.326,4.326 0 1,0 -8.652,0  M 58.97527,570.0 a 4.326,4.326 0 1,0 8.652,0  a 4.326,4.326 0 1,0 -8.652,0  M 448.6867,645.0 a 4.326,4.326 0 1,0 8.652,0  a 4.326,4.326 0 1,0 -8.652,0  M 491.98797,570.0 a 4.326,4.326 0 1,0 8.652,0  a 4.326,4.326 0 1,0 -8.652,0  M 15.674,495.0 a 4.326,4.326 0 1,0 8.652,0  a 4.326,4.326 0 1,0 -8.652,0  M 58.97527,420.0 a 4.326,4.326 0 1,0 8.652,0  a 4.326,4.326 0 1,0 -8.652,0  M 448.6867,495.0 a 4.326,4.326 0 1,0 8.652,0  a 4.326,4.326 0 1,0 -8.652,0  M 491.98797,420.0 a 4.326,4.326 0 1,0 8.652,0  a 4.326,4.326 0 1,0 -8.652,0  M 15.674,345.0 a 4.326,4.326 0 1,0 8.652,0  a 4.326,4.326 0 1,0 -8.652,0  M 58.97527,270.0 a 4.326,4.326 0 1,0 8.652,0  a 4.326,4.326 0 1,0 -8.652,0  M 448.6867,345.0 a 4.326,4.326 0 1,0 8.652,0  a 4.326,4.326 0 1,0 -8.652,0  M 491.98797,270.0 a 4.326,4.326 0 1,0 8.652,0  a 4.326,4.326 0 1,0 -8.652,0  M 15.674,195.0 a 4.326,4.326 0 1,0 8.652,0  a 4.326,4.326 0 1,0 -8.652,0  M 58.97527,120.0 a 4.326,4.326 0 1,0 8.652,0  a 4.326,4.326 0 1,0 -8.652,0  M 448.6867,195.0 a 4.326,4.326 0 1,0 8.652,0  a 4.326,4.326 0 1,0 -8.652,0  M 491.98797,120.0 a 4.326,4.326 0 1,0 8.652,0  a 4.326,4.326 0 1,0 -8.652,0  M 15.674,45.0 a 4.326,4.326 0 1,0 8.652,0  a 4.326,4.326 0 1,0 -8.652,0  M 102.27654,45.0 a 4.326,4.326 0 1,0 8.652,0  a 4.326,4.326 0 1,0 -8.652,0  M 188.87908,45.0 a 4.326,4.326 0 1,0 8.652,0  a 4.326,4.326 0 1,0 -8.652,0  M 275.48162,45.0 a 4.326,4.326 0 1,0 8.652,0  a 4.326,4.326 0 1,0 -8.652,0  M 362.08416,45.0 a 4.326,4.326 0 1,0 8.652,0  a 4.326,4.326 0 1,0 -8.652,0  M 448.6867,45.0 a 4.326,4.326 0 1,0 8.652,0  a 4.326,4.326 0 1,0 -8.652,0 "  stroke="gray" stroke-width="0.0"  stroke-opacity="1" fill-opacity="1"  fill="gray" />
<path d="M 103.92907,945.0 a 2.6734679999999997,2.6734679999999997 0 1,0 5.3469359999999995,0  a 2.6734679999999997,2.6734679999999997 0 1,0 -5.3469359999999995,0 "  stroke="yellow" stroke-width="0.0"  stroke-opacity="1" fill-opacity="1"  fill="yellow" />
</svg>